# xmcd CD database file
#
# Track frame offsets:
#	150
#	26545
#	44707
#	76602
#	91157
#	108792
#	133095
#	152600
#	166152
#	180955
#	211765
#	234260
#	254572
#	278182
#
# Disc length: 4067 seconds
#
# Revision: 1
# Processed by: cddbd v1.5PL3 Copyright (c) Steve Scherf et al.
# Submitted via: CDex 1.51
#
DISCID=a50fe10e
DTITLE=Rod Piazza and The Mighty Flyers - The Essential Collection
DYEAR=1992
DGENRE=Blues
TTITLE0=Sinister Woman
TTITLE1=Take Out Some Insurance
TTITLE2=Five Long Years
TTITLE3=It ain't Right
TTITLE4=Somebody
TTITLE5=Texas Twister
TTITLE6=From the Start to the Finnish
TTITLE7=Shot from the Saddle
TTITLE8=Mellow Down Easy
TTITLE9=Waitin' on Your Baby
TTITLE10=Talk to Your Daughter
TTITLE11=P.S. I Love You
TTITLE12=Hard Work Boogie
TTITLE13=Help Me
EXTD=featuring Rod Piazza, Miss Honey and Bill Stuve YEAR: 1992
EXTT0=
EXTT1=
EXTT2=
EXTT3=
EXTT4=
EXTT5=
EXTT6=
EXTT7=
EXTT8=
EXTT9=
EXTT10=
EXTT11=
EXTT12=
EXTT13=
PLAYORDER=
